# xmcd
#
# Track frame offsets: 
#        182
#        13810
#        28840
#        50962
#        59862
#        72242
#        83517
#        96427
#        111175
#        124682
#        139792
#        148650
#        164455
#        175112
#
# Disc length: 2547 seconds
#
# Revision: 2
# Processed by: cddbd v1.5.2PL0 Copyright (c) Steve Scherf et al.
# Submitted via: ExactAudioCopy v0.99pb4
#
DISCID=d209f10e
DTITLE=Various Artist - In The Midnight Hour... Dancing The Night Away
DYEAR=1900
DGENRE=Pop
TTITLE0=Ike And Tina Turner - Nutbush City Limits
TTITLE1=Real Thing - Can't Get By Without You
TTITLE2=Shirley And Company - Shame, Shame, Shame
TTITLE3=The Clovers - Love Potion No. 9
TTITLE4=Marv Johnson - You've Got What It Takes
TTITLE5=The Exciters - Do Wah Diddy Diddy
TTITLE6=The Isley Brothers - Who's That Lady
TTITLE7=Andrea True Connection - More, More, More
TTITLE8=The Foundations - Build Me Up Buttercup
TTITLE9=Donnie Elbert - Where Did Our Love Go
TTITLE10=Johnny Burnette - You're Sixteen, You're Beautiful (And You'r
TTITLE10=e Mine)
TTITLE11=The Edwin Hawkins Singers - Oh! Happy Day
TTITLE12=Fats Domino - Blueberry Hill
TTITLE13=Joe South - Games People Play
EXTD=tim1701
EXTT0=
EXTT1=
EXTT2=
EXTT3=
EXTT4=
EXTT5=
EXTT6=
EXTT7=
EXTT8=
EXTT9=
EXTT10=
EXTT11=
EXTT12=
EXTT13=
PLAYORDER=
